<svg width="32" height="32" viewBox="0 0 32 32" fill="none" xmlns="http://www.w3.org/2000/svg">
<path d="M14 24.25C14 24.5467 13.912 24.8367 13.7472 25.0834C13.5824 25.33 13.3481 25.5223 13.074 25.6358C12.7999 25.7494 12.4983 25.7791 12.2074 25.7212C11.9164 25.6633 11.6491 25.5204 11.4393 25.3107C11.2296 25.1009 11.0867 24.8336 11.0288 24.5426C10.9709 24.2517 11.0006 23.9501 11.1142 23.676C11.2277 23.4019 11.42 23.1676 11.6666 23.0028C11.9133 22.838 12.2033 22.75 12.5 22.75C12.8978 22.75 13.2794 22.908 13.5607 23.1893C13.842 23.4706 14 23.8522 14 24.25ZM22.25 22.75C21.9533 22.75 21.6633 22.838 21.4166 23.0028C21.17 23.1676 20.9777 23.4019 20.8642 23.676C20.7506 23.9501 20.7209 24.2517 20.7788 24.5426C20.8367 24.8336 20.9796 25.1009 21.1893 25.3107C21.3991 25.5204 21.6664 25.6633 21.9574 25.7212C22.2483 25.7791 22.5499 25.7494 22.824 25.6358C23.0981 25.5223 23.3324 25.33 23.4972 25.0834C23.662 24.8367 23.75 24.5467 23.75 24.25C23.75 23.8522 23.592 23.4706 23.3107 23.1893C23.0294 22.908 22.6478 22.75 22.25 22.75ZM26.7172 10.9703L24.0425 19.6619C23.9024 20.1226 23.6175 20.5259 23.2301 20.812C22.8427 21.0981 22.3734 21.2517 21.8919 21.25H12.8816C12.3931 21.2482 11.9184 21.0882 11.5285 20.7939C11.1386 20.4997 10.8545 20.087 10.7188 19.6178L7.32687 7.75H5.75C5.55109 7.75 5.36032 7.67098 5.21967 7.53033C5.07902 7.38968 5 7.19891 5 7C5 6.80109 5.07902 6.61032 5.21967 6.46967C5.36032 6.32902 5.55109 6.25 5.75 6.25H7.32687C7.65257 6.25108 7.96916 6.35761 8.22925 6.55365C8.48934 6.74969 8.67895 7.0247 8.76969 7.3375L9.53 10H26C26.1174 9.99996 26.2331 10.0275 26.3379 10.0803C26.4427 10.1331 26.5336 10.2098 26.6034 10.3042C26.6732 10.3986 26.7198 10.508 26.7396 10.6237C26.7593 10.7394 26.7517 10.8581 26.7172 10.9703ZM24.9847 11.5H9.95844L12.1606 19.2062C12.2054 19.3629 12.3 19.5007 12.4301 19.5988C12.5602 19.6969 12.7186 19.75 12.8816 19.75H21.8919C22.0524 19.7501 22.2086 19.6986 22.3377 19.6033C22.4668 19.508 22.5619 19.3737 22.6091 19.2203L24.9847 11.5Z" fill="#333333"/>
</svg>
