<svg width="32" height="32" viewBox="0 0 32 32" fill="none" xmlns="http://www.w3.org/2000/svg">
<path d="M25.5145 24.4587L20.8214 19.7656C22.1843 18.131 22.8646 16.0338 22.7206 13.9104C22.5767 11.7871 21.6197 9.8009 20.0486 8.36517C18.4776 6.92944 16.4135 6.15468 14.2858 6.20206C12.158 6.24945 10.1305 7.11532 8.62492 8.61957C7.11935 10.1238 6.25168 12.1506 6.20241 14.2783C6.15315 16.406 6.92609 18.4707 8.36043 20.0431C9.79477 21.6154 11.7801 22.5742 13.9033 22.72C16.0266 22.8658 18.1243 22.1874 19.7601 20.8259L24.4533 25.5199C24.5229 25.5896 24.6057 25.6449 24.6967 25.6826C24.7878 25.7203 24.8853 25.7397 24.9839 25.7397C25.0824 25.7397 25.18 25.7203 25.2711 25.6826C25.3621 25.6449 25.4448 25.5896 25.5145 25.5199C25.5842 25.4503 25.6395 25.3675 25.6772 25.2765C25.7149 25.1854 25.7343 25.0879 25.7343 24.9893C25.7343 24.8908 25.7149 24.7932 25.6772 24.7021C25.6395 24.6111 25.5842 24.5284 25.5145 24.4587ZM7.73388 14.4893C7.73388 13.1543 8.12977 11.8492 8.87146 10.7392C9.61316 9.62919 10.6674 8.76402 11.9008 8.25313C13.1342 7.74224 14.4914 7.60857 15.8007 7.86902C17.1101 8.12947 18.3129 8.77234 19.2569 9.71635C20.2009 10.6604 20.8437 11.8631 21.1042 13.1725C21.3646 14.4818 21.231 15.839 20.7201 17.0724C20.2092 18.3058 19.344 19.36 18.234 20.1017C17.124 20.8434 15.8189 21.2393 14.4839 21.2393C12.6943 21.2373 10.9785 20.5255 9.71311 19.2601C8.44767 17.9947 7.73587 16.2789 7.73388 14.4893Z" fill="#333333"/>
</svg>
