<svg xmlns="http://www.w3.org/2000/svg" width="105" height="165" viewBox="0 0 105 165"><rect width="100%" height="100%" fill="#DDDDDD"/><path fill="#999999" d="M26.035 86.27h1.82v1.29h-5.6v-1.29h2.05v-5.91q0-.35.02-.72l-1.45 1.22q-.13.1-.25.12-.12.03-.23.01-.11-.02-.19-.08-.09-.05-.13-.11l-.55-.75 3.09-2.63h1.42v8.85Zm10.47-3.77q0 1.32-.29 2.3-.28.97-.78 1.61-.5.64-1.18.95-.69.31-1.48.31t-1.46-.31q-.68-.31-1.18-.95-.49-.64-.77-1.61-.28-.98-.28-2.3 0-1.33.28-2.3.28-.98.77-1.61.5-.64 1.18-.95.67-.31 1.46-.31.79 0 1.48.31.68.31 1.18.95.5.63.78 1.61.29.97.29 2.3Zm-1.79 0q0-1.1-.16-1.82t-.43-1.15q-.27-.43-.62-.6-.35-.17-.73-.17-.37 0-.71.17-.35.17-.62.6-.26.43-.42 1.15-.16.72-.16 1.82t.16 1.82q.16.72.42 1.15.27.42.62.6.34.17.71.17.38 0 .73-.17.35-.18.62-.6.27-.43.43-1.15.16-.72.16-1.82Zm5.34-3.49-.36 2.1q.34-.07.64-.1.31-.03.6-.03.8 0 1.41.24.6.24 1.02.66.41.42.62.98.21.56.21 1.21 0 .81-.28 1.47-.29.67-.79 1.14-.5.47-1.19.73t-1.51.26q-.47 0-.9-.1-.43-.09-.8-.26-.37-.16-.69-.38-.32-.21-.57-.45l.53-.73q.17-.24.44-.24.17 0 .36.11l.41.25q.24.13.56.24.31.11.76.11.48 0 .84-.15.37-.16.61-.43.24-.28.36-.66t.12-.83q0-.83-.47-1.29-.48-.47-1.42-.47-.72 0-1.48.27l-1.08-.31.84-4.91h5v.73q0 .37-.23.6-.23.24-.78.24h-2.78Zm15.68 6.23-.91.91-2.38-2.38-2.39 2.39-.92-.9 2.4-2.4-2.29-2.29.91-.91 2.29 2.29 2.26-2.27.93.91-2.28 2.27 2.38 2.38Zm9.59 1.03h1.82v1.29h-5.6v-1.29h2.05v-5.91q0-.35.02-.72l-1.46 1.22q-.12.1-.25.12-.12.03-.23.01-.11-.02-.19-.08-.08-.05-.13-.11l-.54-.75 3.09-2.63h1.42v8.85Zm9.35-8.83-3 3.67-.35.44q.29-.15.63-.23.34-.08.73-.08.57 0 1.12.19.54.19.95.57.42.38.67.95.25.56.25 1.32 0 .71-.26 1.33-.26.62-.73 1.08-.47.46-1.13.73-.66.26-1.46.26-.81 0-1.45-.26-.65-.26-1.1-.72-.46-.47-.7-1.12-.24-.66-.24-1.45 0-.72.29-1.47t.9-1.57l2.41-3.24q.13-.16.37-.28.24-.12.56-.12h1.54Zm-2.61 8.82q.41 0 .76-.14.34-.14.59-.39.25-.26.39-.6.14-.34.14-.73 0-.44-.13-.78-.14-.35-.38-.59-.25-.24-.59-.37-.34-.13-.75-.13-.42 0-.75.14-.34.14-.58.39-.24.25-.37.59-.13.34-.13.73 0 .42.11.77.12.35.35.59.22.25.56.38.34.14.78.14Zm7.27-7.25-.36 2.1q.34-.07.65-.1t.59-.03q.8 0 1.41.24.61.24 1.02.66.42.42.62.98.21.56.21 1.21 0 .81-.28 1.47-.28.67-.79 1.14-.5.47-1.19.73t-1.5.26q-.48 0-.9-.1-.43-.09-.81-.26-.37-.16-.69-.38-.32-.21-.57-.45l.53-.73q.17-.24.44-.24.18 0 .36.11t.42.25q.23.13.55.24.32.11.77.11.47 0 .84-.15.36-.16.6-.43.24-.28.37-.66.12-.38.12-.83 0-.83-.48-1.29-.48-.47-1.42-.47-.72 0-1.48.27l-1.07-.31.84-4.91h5v.73q0 .37-.24.6-.23.24-.78.24h-2.78Z"/></svg>