<svg width="100%" height="100%" viewBox="0 0 40 40" fill="none" xmlns="http://www.w3.org/2000/svg">
<path d="M20.0002 3.33325C24.5285 3.33325 25.0935 3.34992 26.8702 3.43325C28.6452 3.51659 29.8535 3.79492 30.9168 4.20825C32.0168 4.63159 32.9435 5.20492 33.8702 6.12992C34.7177 6.96308 35.3734 7.9709 35.7918 9.08325C36.2035 10.1449 36.4835 11.3549 36.5668 13.1299C36.6452 14.9066 36.6668 15.4716 36.6668 19.9999C36.6668 24.5283 36.6502 25.0933 36.5668 26.8699C36.4835 28.6449 36.2035 29.8533 35.7918 30.9166C35.3746 32.0295 34.7187 33.0376 33.8702 33.8699C33.0368 34.7171 32.029 35.3728 30.9168 35.7916C29.8552 36.2033 28.6452 36.4833 26.8702 36.5666C25.0935 36.6449 24.5285 36.6666 20.0002 36.6666C15.4718 36.6666 14.9068 36.6499 13.1302 36.5666C11.3552 36.4833 10.1468 36.2033 9.0835 35.7916C7.97071 35.374 6.96271 34.7182 6.13016 33.8699C5.28251 33.0369 4.62672 32.029 4.2085 30.9166C3.79516 29.8549 3.51683 28.6449 3.4335 26.8699C3.35516 25.0933 3.3335 24.5283 3.3335 19.9999C3.3335 15.4716 3.35016 14.9066 3.4335 13.1299C3.51683 11.3533 3.79516 10.1466 4.2085 9.08325C4.62556 7.97022 5.2815 6.96212 6.13016 6.12992C6.96295 5.28197 7.97088 4.62613 9.0835 4.20825C10.1468 3.79492 11.3535 3.51659 13.1302 3.43325C14.9068 3.35492 15.4718 3.33325 20.0002 3.33325ZM20.0002 11.6666C17.79 11.6666 15.6704 12.5446 14.1076 14.1074C12.5448 15.6702 11.6668 17.7898 11.6668 19.9999C11.6668 22.2101 12.5448 24.3297 14.1076 25.8925C15.6704 27.4553 17.79 28.3333 20.0002 28.3333C22.2103 28.3333 24.3299 27.4553 25.8927 25.8925C27.4555 24.3297 28.3335 22.2101 28.3335 19.9999C28.3335 17.7898 27.4555 15.6702 25.8927 14.1074C24.3299 12.5446 22.2103 11.6666 20.0002 11.6666V11.6666ZM30.8335 11.2499C30.8335 10.6974 30.614 10.1675 30.2233 9.77678C29.8326 9.38608 29.3027 9.16659 28.7502 9.16659C28.1976 9.16659 27.6677 9.38608 27.277 9.77678C26.8863 10.1675 26.6668 10.6974 26.6668 11.2499C26.6668 11.8025 26.8863 12.3324 27.277 12.7231C27.6677 13.1138 28.1976 13.3333 28.7502 13.3333C29.3027 13.3333 29.8326 13.1138 30.2233 12.7231C30.614 12.3324 30.8335 11.8025 30.8335 11.2499ZM20.0002 14.9999C21.3262 14.9999 22.598 15.5267 23.5357 16.4644C24.4734 17.4021 25.0002 18.6738 25.0002 19.9999C25.0002 21.326 24.4734 22.5978 23.5357 23.5355C22.598 24.4731 21.3262 24.9999 20.0002 24.9999C18.6741 24.9999 17.4023 24.4731 16.4646 23.5355C15.5269 22.5978 15.0002 21.326 15.0002 19.9999C15.0002 18.6738 15.5269 17.4021 16.4646 16.4644C17.4023 15.5267 18.6741 14.9999 20.0002 14.9999V14.9999Z"></path>
</svg>