<svg width="100%" height="100%" viewBox="0 0 40 40" fill="none" xmlns="http://www.w3.org/2000/svg">
<path d="M36.9368 9.42654C35.6643 9.98937 34.315 10.359 32.9334 10.5232C34.3897 9.65227 35.4796 8.28157 36.0001 6.66654C34.6334 7.47988 33.1351 8.04988 31.5734 8.35821C30.5244 7.23584 29.134 6.49148 27.6183 6.24085C26.1027 5.99022 24.5467 6.24736 23.1922 6.9723C21.8377 7.69724 20.7607 8.84935 20.1286 10.2495C19.4965 11.6497 19.3447 13.2195 19.6968 14.7149C16.9253 14.576 14.214 13.8557 11.7389 12.601C9.26382 11.3462 7.0803 9.58496 5.33009 7.43154C4.71057 8.49563 4.38501 9.70525 4.38675 10.9365C4.38675 13.3532 5.61675 15.4882 7.48675 16.7382C6.3801 16.7034 5.29781 16.4045 4.33009 15.8665V15.9532C4.33042 17.5627 4.88737 19.1226 5.9065 20.3683C6.92563 21.614 8.34422 22.469 9.92175 22.7882C8.89445 23.0666 7.81727 23.1076 6.77175 22.9082C7.21653 24.2936 8.08343 25.5052 9.25107 26.3734C10.4187 27.2416 11.8286 27.7229 13.2834 27.7499C11.8376 28.8854 10.182 29.7248 8.41156 30.2202C6.64106 30.7155 4.7903 30.857 2.96509 30.6365C6.15125 32.6856 9.86025 33.7734 13.6484 33.7699C26.4701 33.7699 33.4818 23.1482 33.4818 13.9365C33.4818 13.6365 33.4734 13.3332 33.4601 13.0365C34.8249 12.0502 36.0028 10.8282 36.9384 9.42821L36.9368 9.42654Z"></path>
</svg>