<svg width="100%" height="100%" viewBox="0 0 40 40" fill="none" xmlns="http://www.w3.org/2000/svg">
<path d="M20.0102 31.6866H19.9768C19.8735 31.6866 9.53517 31.6666 6.92684 30.9583C5.49254 30.5719 4.37242 29.4511 3.98684 28.0166C3.5178 25.3705 3.2913 22.6872 3.31017 19.9999C3.29805 17.3083 3.53068 14.6211 4.00517 11.9716C4.40135 10.5358 5.51655 9.40983 6.9485 8.99992C9.48517 8.33325 19.5385 8.33325 19.9652 8.33325H20.0002C20.1052 8.33325 30.4702 8.35325 33.0518 9.06159C34.4831 9.44993 35.601 10.5684 35.9885 11.9999C36.4725 14.6558 36.6996 17.3521 36.6668 20.0516C36.6785 22.74 36.4453 25.4238 35.9702 28.0699C35.5796 29.5027 34.4588 30.6209 33.0252 31.0083C30.4918 31.6799 20.4368 31.6866 20.0102 31.6866ZM16.6768 15.0083L16.6685 25.0083L25.3552 20.0083L16.6768 15.0083Z"></path>
</svg>