<?xml version="1.0" encoding="iso-8859-1"?>
<!-- Generator: Adobe Illustrator 16.0.0, SVG Export Plug-In . SVG Version: 6.00 Build 0)  -->
<!DOCTYPE svg PUBLIC "-//W3C//DTD SVG 1.1//EN" "http://www.w3.org/Graphics/SVG/1.1/DTD/svg11.dtd">
<svg version="1.1" id="Capa_1" xmlns="http://www.w3.org/2000/svg" xmlns:xlink="http://www.w3.org/1999/xlink" x="0px" y="0px"
	 width="374.147px" height="374.147px" viewBox="0 0 374.147 374.147" style="enable-background:new 0 0 374.147 374.147;"
	 xml:space="preserve">
<g>
	<g>
		<path d="M367.108,189.186c-4.354-2.491-9.707-2.464-14.032,0.073l-71.561,41.981v-44.784c0-2.41-0.609-4.677-1.684-6.656
			c32.258-14.604,54.754-47.1,54.754-84.753c0-51.267-41.706-92.974-92.973-92.974c-30.348,0-57.341,14.614-74.32,37.172
			C150.314,16.688,123.32,2.074,92.975,2.074C41.708,2.074,0,43.781,0,95.048c0,37.924,22.827,70.612,55.46,85.061
			c-0.976,1.907-1.534,4.06-1.534,6.348v171.625c0,7.729,6.265,13.992,13.991,13.992h199.607c7.729,0,13.991-6.264,13.991-13.992
			v-44.783l71.561,41.981c4.325,2.538,9.682,2.565,14.032,0.073c4.353-2.493,7.039-7.125,7.039-12.143V201.327
			C374.147,196.312,371.461,191.68,367.108,189.186z M167.295,150.85c6.348,8.433,14.095,15.753,22.896,21.617h-45.789
			C153.199,166.603,160.948,159.282,167.295,150.85z M241.615,39.384c30.691,0,55.663,24.971,55.663,55.664
			c0,30.694-24.972,55.666-55.663,55.666c-30.693,0-55.665-24.971-55.665-55.666C185.95,64.355,210.922,39.384,241.615,39.384z
			 M37.312,95.048c0-30.693,24.971-55.664,55.663-55.664c30.694,0,55.665,24.971,55.665,55.664
			c0,30.694-24.971,55.666-55.665,55.666C62.283,150.714,37.312,125.742,37.312,95.048z"/>
	</g>
</g>
<g>
</g>
<g>
</g>
<g>
</g>
<g>
</g>
<g>
</g>
<g>
</g>
<g>
</g>
<g>
</g>
<g>
</g>
<g>
</g>
<g>
</g>
<g>
</g>
<g>
</g>
<g>
</g>
<g>
</g>
</svg>
