<?xml version="1.0" standalone="no"?>
<!DOCTYPE svg PUBLIC "-//W3C//DTD SVG 20010904//EN"
 "http://www.w3.org/TR/2001/REC-SVG-20010904/DTD/svg10.dtd">
<svg version="1.0" xmlns="http://www.w3.org/2000/svg"
 width="590.000000pt" height="300.000000pt" viewBox="0 0 590.000000 300.000000"
 preserveAspectRatio="xMidYMid meet">
<metadata>
Created by potrace 1.16, written by Peter Selinger 2001-2019
</metadata>
<g transform="translate(0.000000,300.000000) scale(0.100000,-0.100000)"
fill="#000000" stroke="none">
<path d="M4995 2806 c-122 -30 -215 -102 -263 -204 -24 -50 -27 -69 -27 -162
0 -126 17 -172 95 -254 65 -69 138 -104 316 -154 168 -47 207 -65 223 -99 27
-58 -22 -121 -112 -144 -127 -32 -231 37 -259 171 l-12 58 -35 -4 c-20 -3 -78
-8 -130 -13 -74 -7 -97 -13 -114 -30 -20 -20 -20 -24 -9 -91 17 -97 61 -189
121 -253 94 -100 199 -137 386 -137 230 0 371 72 448 229 31 64 32 70 32 191
0 116 -2 129 -27 180 -36 73 -109 144 -184 180 -33 16 -124 47 -202 70 -166
47 -206 65 -220 95 -19 41 24 77 108 89 100 15 171 -35 185 -127 l7 -42 86 3
c48 1 116 5 151 8 l63 6 -4 77 c-10 178 -122 308 -305 356 -69 18 -246 19
-318 1z"/>
<path d="M437 2782 c-16 -17 -17 -66 -17 -629 0 -578 1 -611 18 -626 15 -14
41 -17 144 -17 108 0 127 2 141 18 15 16 17 47 17 229 l0 210 174 5 174 4 76
37 c120 60 183 149 207 295 16 94 0 214 -38 292 -36 74 -109 143 -180 171 -55
22 -72 24 -378 27 -305 3 -321 3 -338 -16z m496 -271 c46 -6 64 -13 90 -39 28
-29 32 -39 32 -87 0 -47 -4 -59 -30 -85 -35 -34 -102 -50 -217 -50 l-68 0 0
135 0 135 68 -1 c37 0 93 -4 125 -8z"/>
<path d="M1625 2181 c-214 -608 -218 -621 -201 -646 l17 -26 146 3 146 3 45
133 44 132 188 0 188 0 28 -82 c15 -46 35 -107 46 -135 l19 -53 144 0 c218 0
224 -74 -46 668 l-224 617 -161 3 -160 2 -219 -619z m429 11 l45 -132 -89 0
c-50 0 -90 3 -90 7 0 10 84 263 86 260 1 -1 23 -62 48 -135z"/>
<path d="M2837 2782 c-15 -17 -17 -75 -17 -629 0 -578 1 -611 18 -626 15 -14
41 -17 139 -17 103 0 122 3 136 18 15 17 17 75 17 629 0 578 -1 611 -18 626
-15 14 -41 17 -139 17 -103 0 -122 -3 -136 -18z"/>
<path d="M3437 2782 c-15 -17 -17 -75 -17 -629 0 -578 1 -611 18 -626 15 -14
41 -17 139 -17 103 0 122 3 136 18 15 16 17 49 17 256 l0 238 53 -7 c28 -4 62
-13 75 -21 37 -24 102 -115 201 -281 51 -87 100 -168 108 -180 13 -22 19 -23
168 -23 l154 0 16 30 c15 29 14 31 -81 197 -115 199 -145 246 -191 294 l-35
36 48 23 c64 31 121 90 152 159 48 103 40 290 -15 380 -30 48 -88 103 -134
126 -73 38 -151 45 -485 45 -289 0 -312 -1 -327 -18z m636 -285 c36 -23 52
-77 37 -122 -19 -57 -51 -67 -227 -73 l-153 -5 0 113 0 113 159 -5 c125 -4
165 -8 184 -21z"/>
<path d="M82 898 c3 -453 3 -464 25 -518 51 -124 149 -223 271 -272 l57 -23
2515 0 2515 0 57 23 c122 49 220 148 271 272 22 54 22 65 25 518 l3 462 -2871
0 -2871 0 3 -462z m4288 272 c114 -22 205 -91 258 -197 38 -74 52 -143 52
-246 0 -270 -158 -447 -399 -447 -240 0 -391 172 -391 445 0 305 207 497 480
445z m-2501 -443 l147 -438 -95 3 -94 3 -32 95 -32 95 -151 3 -151 3 -32 -101
-32 -100 -87 0 -87 0 140 440 141 441 109 -3 110 -3 146 -438z m482 140 c4
-300 4 -303 29 -351 34 -66 75 -88 157 -84 53 3 67 8 93 33 54 51 60 96 60
417 l0 288 90 0 90 0 0 -272 c0 -150 -5 -302 -11 -338 -20 -127 -76 -208 -173
-252 -44 -20 -67 -23 -166 -23 -139 1 -197 21 -260 93 -73 82 -80 126 -80 483
l0 309 84 0 84 0 3 -303z m1409 223 l0 -80 -125 0 -125 0 0 -360 0 -360 -90 0
-90 0 0 360 0 360 -125 0 -125 0 0 80 0 80 340 0 340 0 0 -80z"/>
<path d="M4195 1003 c-77 -40 -113 -110 -122 -236 -13 -186 60 -316 189 -333
131 -18 222 82 235 259 10 148 -36 265 -119 306 -53 25 -139 27 -183 4z"/>
<path d="M1556 846 c-27 -94 -51 -177 -53 -183 -4 -10 22 -13 107 -13 101 0
111 2 106 18 -3 9 -28 91 -55 181 -28 90 -51 165 -53 166 -2 2 -25 -74 -52
-169z"/>
</g>
</svg>
